<svg xmlns="http://www.w3.org/2000/svg" viewBox="0 0 128 128" role="img" aria-label="Architecture to Autonomy logo - monogram grid">
  <defs>
    <linearGradient id="bgV2" x1="0%" y1="0%" x2="100%" y2="100%">
      <stop offset="0%" stop-color="#0f172a"/>
      <stop offset="100%" stop-color="#0f766e"/>
    </linearGradient>
    <linearGradient id="inkV2" x1="0%" y1="0%" x2="100%" y2="0%">
      <stop offset="0%" stop-color="#f8fafc"/>
      <stop offset="100%" stop-color="#fde68a"/>
    </linearGradient>
  </defs>

  <rect x="8" y="8" width="112" height="112" rx="24" fill="url(#bgV2)"/>

  <g opacity="0.14" stroke="#ffffff">
    <path d="M24 30h80M24 50h80M24 70h80M24 90h80"/>
    <path d="M30 24v80M50 24v80M70 24v80M90 24v80"/>
  </g>

  <path d="M20 94 34 34 48 94" fill="none" stroke="url(#inkV2)" stroke-width="6" stroke-linecap="round" stroke-linejoin="round"/>
  <path d="M27 70h14" fill="none" stroke="#fde68a" stroke-width="5" stroke-linecap="round"/>

  <path d="M58 42c7-6 18-6 25 0 6 5 6 15-2 20-4 3-8 4-12 6-4 2-7 4-7 8 0 5 5 8 13 8 5 0 10-1 14-3" fill="none" stroke="#f8fafc" stroke-width="5.5" stroke-linecap="round" stroke-linejoin="round"/>

  <path d="M80 94 94 34 108 94" fill="none" stroke="url(#inkV2)" stroke-width="6" stroke-linecap="round" stroke-linejoin="round"/>
  <path d="M87 70h14" fill="none" stroke="#fde68a" stroke-width="5" stroke-linecap="round"/>
</svg>
