<svg xmlns="http://www.w3.org/2000/svg" viewBox="0 0 128 128" role="img" aria-label="Architecture to Autonomy logo - control plane compass">
  <defs>
    <linearGradient id="bgV3" x1="0%" y1="0%" x2="100%" y2="100%">
      <stop offset="0%" stop-color="#1e3a8a"/>
      <stop offset="100%" stop-color="#0f766e"/>
    </linearGradient>
    <linearGradient id="ringV3" x1="0%" y1="0%" x2="100%" y2="100%">
      <stop offset="0%" stop-color="#f8fafc"/>
      <stop offset="100%" stop-color="#99f6e4"/>
    </linearGradient>
  </defs>

  <rect x="8" y="8" width="112" height="112" rx="24" fill="url(#bgV3)"/>

  <g opacity="0.16" stroke="#ffffff">
    <path d="M22 38h84M22 64h84M22 90h84"/>
    <path d="M38 22v84M64 22v84M90 22v84"/>
  </g>

  <circle cx="64" cy="64" r="30" fill="none" stroke="url(#ringV3)" stroke-width="6"/>
  <circle cx="64" cy="64" r="16" fill="none" stroke="#f8fafc" stroke-width="4" opacity="0.9"/>

  <path d="M64 42 72 64 64 86 56 64Z" fill="#f59e0b" stroke="#ffffff" stroke-width="2" stroke-linejoin="round"/>
  <circle cx="64" cy="64" r="4" fill="#f8fafc"/>

  <path d="M64 34V24M64 104V94M34 64H24M104 64H94" stroke="#e2e8f0" stroke-width="3" stroke-linecap="round"/>
  <circle cx="64" cy="24" r="4" fill="#99f6e4"/>
  <circle cx="104" cy="64" r="4" fill="#99f6e4"/>
  <circle cx="64" cy="104" r="4" fill="#99f6e4"/>
  <circle cx="24" cy="64" r="4" fill="#99f6e4"/>
</svg>
